<svg xmlns="http://www.w3.org/2000/svg" xmlns:xlink="http://www.w3.org/1999/xlink" width="5184" viewBox="0 0 5184 2592" height="2592" version="1.0"><defs><clipPath id="b"><path d="M 1 0 L 5183 0 L 5183 2591 L 1 2591 Z M 1 0"/></clipPath><clipPath id="e"><path d="M 0 0 L 314.757812 0 L 314.757812 315.71875 L 0 315.71875 Z M 0 0"/></clipPath><clipPath id="d"><path d="M0 0H315V316H0z"/></clipPath><clipPath id="f"><path d="M 4372 0 L 5183 0 L 5183 606 L 4372 606 Z M 4372 0"/></clipPath><clipPath id="g"><path d="M 5056 1093 L 5183 1093 L 5183 1307 L 5056 1307 Z M 5056 1093"/></clipPath><clipPath id="h"><path d="M 2442 2331 L 2743 2331 L 2743 2591 L 2442 2591 Z M 2442 2331"/></clipPath><clipPath id="k"><path d="M 1 1 L 479.601562 1 L 479.601562 351 L 1 351 Z M 1 1"/></clipPath><clipPath id="j"><path d="M0 0H480V351H0z"/></clipPath><mask id="c"><g filter="url(#a)"><path fill-opacity=".608" d="M-518.4 -259.2H5702.400000000001V2851.2000000000003H-518.4z"/></g></mask><mask id="i"><g filter="url(#a)"><path fill-opacity=".608" d="M-518.4 -259.2H5702.400000000001V2851.2000000000003H-518.4z"/></g></mask><filter x="0%" y="0%" width="100%" xmlns:xlink="http://www.w3.org/1999/xlink" xlink:type="simple" xlink:actuate="onLoad" height="100%" id="a" xlink:show="other"><feColorMatrix values="0 0 0 0 1 0 0 0 0 1 0 0 0 0 1 0 0 0 1 0" color-interpolation-filters="sRGB"/></filter></defs><g clip-path="url(#b)"><path fill="#FFF" d="M 1 0 L 5183 0 L 5183 2598.496094 L 1 2598.496094 Z M 1 0"/></g><path fill="#FFF" d="M 1 0 L 5183 0 L 5183 2591 L 1 2591 Z M 1 0"/><path fill="#FEFFFF" d="M 1 0 L 5183 0 L 5183 2591 L 1 2591 Z M 1 0"/><g mask="url(#c)"><g><g clip-path="url(#d)" transform="translate(1)"><g clip-path="url(#e)"><path fill="#38B6FF" d="M 75.386719 -162.789062 C -56.699219 -162.789062 -163.773438 -55.714844 -163.773438 76.367188 C -163.773438 208.449219 -56.699219 315.523438 75.386719 315.523438 C 207.46875 315.523438 314.542969 208.449219 314.542969 76.367188 C 314.542969 -55.714844 207.46875 -162.789062 75.386719 -162.789062"/></g></g></g></g><g clip-path="url(#f)"><path fill="#028CDD" d="M 4400.097656 294.09375 C 4397.535156 287.257812 4395.398438 279.992188 4393.261719 273.160156 L 4978.539062 -312.117188 C 4985.375 -309.980469 4992.636719 -307.84375 4999.472656 -305.28125 Z M 4910.183594 -327.070312 C 4902.066406 -328.351562 4893.523438 -329.207031 4885.40625 -330.058594 L 4374.890625 180.453125 C 4375.746094 188.570312 4376.601562 197.117188 4377.882812 205.234375 Z M 5109.265625 -248.464844 C 5103.710938 -252.308594 5098.15625 -256.152344 5092.601562 -259.570312 L 4445.382812 387.652344 C 4448.800781 393.203125 4452.644531 398.757812 4456.488281 404.3125 Z M 5038.773438 -289.046875 C 5032.367188 -292.039062 5025.957031 -295.03125 5019.550781 -297.59375 L 4407.789062 314.171875 C 4410.351562 320.578125 4413.339844 326.988281 4416.332031 333.394531 Z M 5075.085938 -269.824219 C 5069.105469 -273.242188 5063.125 -276.660156 5057.144531 -279.648438 L 4424.875 352.621094 C 4427.867188 358.601562 4431.285156 364.582031 4434.703125 370.5625 Z M 4653.433594 -292.894531 C 4633.351562 -283.921875 4613.703125 -273.667969 4594.90625 -262.132812 L 4442.816406 -110.046875 C 4430.855469 -91.25 4420.601562 -71.597656 4412.058594 -51.519531 Z M 4831.578125 -332.195312 L 4372.757812 126.625 C 4372.757812 136.023438 4372.757812 144.996094 4373.183594 154.394531 L 4858.917969 -331.769531 C 4849.949219 -332.195312 4840.550781 -332.195312 4831.578125 -332.195312 Z M 5310.480469 134.316406 L 4839.269531 605.527344 C 4848.667969 605.527344 4858.492188 605.527344 4867.890625 604.671875 L 5309.625 162.9375 C 5310.050781 153.539062 5310.480469 143.714844 5310.480469 134.316406 Z M 5140.878906 -224.113281 C 5135.75 -228.382812 5130.625 -232.65625 5125.5 -236.5 L 4468.449219 420.546875 C 4472.296875 425.671875 4476.566406 430.796875 4480.839844 435.925781 Z M 4802.101562 -330.488281 C 4791.421875 -329.632812 4781.167969 -328.351562 4770.488281 -326.644531 L 4378.308594 65.535156 C 4376.601562 76.214844 4375.320312 86.46875 4374.464844 97.148438 Z M 4736.3125 -320.234375 C 4723.496094 -317.246094 4710.679688 -313.828125 4697.863281 -309.554688 L 4394.972656 -7.089844 C 4391.125 5.726562 4387.28125 18.113281 4384.289062 31.359375 Z M 4956.324219 -318.097656 C 4948.632812 -319.808594 4941.371094 -321.515625 4933.679688 -323.226562 L 4381.726562 228.730469 C 4383.4375 236.417969 4385.144531 243.679688 4386.855469 251.371094 Z M 5301.9375 226.164062 C 5304.070312 215.058594 5305.78125 204.378906 5307.0625 193.269531 L 4898.222656 602.109375 C 4909.332031 600.828125 4920.4375 599.121094 4931.117188 596.984375 Z M 5309.625 107.402344 C 5309.199219 98.855469 5308.34375 90.3125 5307.488281 81.769531 L 4786.722656 602.109375 C 4795.265625 602.964844 4803.808594 603.820312 4812.355469 604.246094 Z M 5303.644531 57.417969 C 5302.363281 49.726562 5300.652344 42.039062 5298.945312 34.347656 L 4738.875 593.992188 C 4746.5625 595.703125 4754.253906 597.410156 4761.945312 598.691406 Z M 5169.929688 -198.054688 C 5165.230469 -202.753906 5160.53125 -207.023438 5155.832031 -211.722656 L 4493.65625 450.449219 C 4497.929688 455.148438 4502.628906 459.847656 4507.328125 464.546875 Z M 5197.269531 441.90625 C 5220.765625 414.566406 5240.417969 385.515625 5256.652344 354.753906 L 5059.707031 551.699219 C 5090.46875 535.464844 5119.515625 515.8125 5146.859375 492.316406 Z M 5293.390625 12.132812 C 5291.253906 4.871094 5289.121094 -1.964844 5286.984375 -9.226562 L 4695.726562 582.03125 C 4702.988281 584.167969 4709.824219 586.304688 4717.085938 588.4375 Z M 5279.722656 304.34375 C 5284.847656 290.675781 5289.546875 277.003906 5293.390625 262.90625 L 4967.859375 588.4375 C 4981.957031 584.59375 4995.625 579.894531 5009.296875 574.769531 Z M 5221.621094 -138.242188 C 5217.777344 -143.371094 5213.929688 -148.925781 5209.660156 -154.050781 L 4550.902344 504.277344 C 4556.027344 508.550781 4561.582031 512.394531 4566.707031 516.242188 Z M 5279.722656 -29.734375 C 5277.15625 -36.566406 5274.59375 -42.976562 5271.605469 -49.382812 L 4655.140625 567.078125 C 4661.550781 570.070312 4668.382812 572.632812 4674.792969 575.195312 Z M 5196.84375 -169.429688 C 5192.570312 -174.554688 5188.296875 -179.253906 5183.597656 -183.953125 L 4520.996094 478.644531 C 4525.695312 483.34375 4530.824219 487.617188 4535.523438 491.890625 Z M 5243.40625 -104.921875 C 5239.992188 -110.476562 5236.574219 -116.457031 5232.726562 -122.007812 L 4582.941406 527.773438 C 4588.496094 531.621094 4594.050781 535.039062 4600.03125 538.457031 Z M 5263.058594 -68.609375 C 5260.070312 -74.589844 5257.078125 -80.996094 5253.660156 -86.976562 L 4617.972656 548.707031 C 4623.953125 552.125 4629.9375 555.117188 4636.34375 558.105469 Z M 5263.058594 -68.609375"/></g><path fill="#0154A2" d="M 586.449219 507.925781 C 586.230469 507.703125 585.847656 507.292969 585.847656 507.257812 L 529 440.925781 L 529.308594 440.449219 C 550 408.8125 552.40625 369.308594 537.988281 336.003906 L 511.675781 354.550781 C 521.007812 382.089844 514.730469 413.796875 492.84375 435.726562 C 462.082031 466.453125 412.078125 466.421875 381.316406 435.691406 C 350.597656 404.964844 350.597656 354.925781 381.292969 324.164062 C 409.964844 295.558594 455.394531 293.605469 486.308594 318.398438 L 512.621094 299.847656 C 469.554688 259.183594 401.382812 259.777344 359.078125 301.835938 L 358.953125 301.960938 C 316.144531 345.050781 316.292969 415.03125 359.304688 457.929688 C 396.023438 494.5625 454.160156 500.554688 497.570312 472.1875 L 498.042969 471.871094 L 563.640625 529.371094 C 563.640625 529.371094 564.085938 529.816406 564.335938 530.039062 C 570.328125 535.148438 578.945312 535.082031 584.8125 530.039062 L 585.722656 529.1875 L 586.605469 528.304688 L 586.539062 528.238281 C 591.53125 522.367188 591.53125 513.855469 586.449219 507.925781"/><path fill="#0154A2" d="M 535.585938 299.089844 L 481.324219 337.320312 L 448.390625 360.546875 C 446.085938 362.15625 444.636719 364.742188 444.410156 367.550781 L 442.171875 397.074219 L 402.960938 356.347656 C 400.976562 354.265625 398.105469 353.191406 395.199219 353.507812 L 380.882812 354.925781 C 378.101562 361.171875 376.425781 367.765625 375.863281 374.453125 L 392.519531 372.78125 L 443.183594 425.441406 C 444.984375 427.328125 447.472656 428.339844 449.996094 428.339844 C 451.070312 428.339844 452.140625 428.15625 453.183594 427.769531 C 456.714844 426.511719 459.152344 423.320312 459.4375 419.597656 L 462.964844 373.449219 L 492.210938 352.816406 L 546.46875 314.582031 L 567.722656 299.605469 L 574.21875 308.820312 C 575.886719 311.183594 579.542969 310.589844 580.378906 307.820312 L 590.121094 275.582031 C 590.773438 273.417969 589.21875 271.222656 586.964844 271.113281 L 553.332031 269.4375 C 550.445312 269.292969 548.65625 272.542969 550.320312 274.90625 L 556.820312 284.136719 L 556.8125 284.136719 L 535.585938 299.089844"/><path fill="#028CDD" d="M 2977.691406 685.777344 C 2947.09375 685.777344 2922.125 660.804688 2922.125 630.128906 C 2922.125 599.535156 2947.09375 574.5625 2977.691406 574.5625 C 3008.367188 574.5625 3033.257812 599.535156 3033.257812 630.128906 C 3033.339844 660.804688 3008.367188 685.777344 2977.691406 685.777344 Z M 2977.691406 605.15625 C 2963.964844 605.15625 2952.71875 616.402344 2952.71875 630.128906 C 2952.71875 643.855469 2963.964844 655.101562 2977.691406 655.101562 C 2991.417969 655.101562 3002.664062 643.855469 3002.664062 630.128906 C 3002.664062 616.402344 2991.5 605.15625 2977.691406 605.15625 Z M 2977.691406 605.15625"/><g clip-path="url(#g)"><path fill="#028CDD" d="M 5162.832031 1306.011719 C 5104.308594 1306.011719 5056.542969 1258.246094 5056.542969 1199.566406 C 5056.542969 1141.042969 5104.308594 1093.277344 5162.832031 1093.277344 C 5221.507812 1093.277344 5269.117188 1141.042969 5269.117188 1199.566406 C 5269.277344 1258.246094 5221.507812 1306.011719 5162.832031 1306.011719 Z M 5162.832031 1151.800781 C 5136.574219 1151.800781 5115.0625 1173.308594 5115.0625 1199.566406 C 5115.0625 1225.820312 5136.574219 1247.332031 5162.832031 1247.332031 C 5189.085938 1247.332031 5210.597656 1225.820312 5210.597656 1199.566406 C 5210.597656 1173.308594 5189.242188 1151.800781 5162.832031 1151.800781 Z M 5162.832031 1151.800781"/></g><path fill="#028CDD" d="M 2488.132812 150.304688 C 2405.742188 150.304688 2338.492188 83.054688 2338.492188 0.445312 C 2338.492188 -81.945312 2405.742188 -149.195312 2488.132812 -149.195312 C 2570.746094 -149.195312 2637.769531 -81.945312 2637.769531 0.445312 C 2637.992188 83.054688 2570.746094 150.304688 2488.132812 150.304688 Z M 2488.132812 -66.804688 C 2451.167969 -66.804688 2420.882812 -36.519531 2420.882812 0.445312 C 2420.882812 37.40625 2451.167969 67.691406 2488.132812 67.691406 C 2525.097656 67.691406 2555.378906 37.40625 2555.378906 0.445312 C 2555.378906 -36.519531 2525.320312 -66.804688 2488.132812 -66.804688 Z M 2488.132812 -66.804688"/><path fill="#028CDD" d="M 4567.964844 865.570312 C 4518.390625 865.570312 4477.929688 825.109375 4477.929688 775.402344 C 4477.929688 725.828125 4518.390625 685.367188 4567.964844 685.367188 C 4617.671875 685.367188 4658 725.828125 4658 775.402344 C 4658.132812 825.109375 4617.671875 865.570312 4567.964844 865.570312 Z M 4567.964844 734.9375 C 4545.722656 734.9375 4527.503906 753.160156 4527.503906 775.402344 C 4527.503906 797.640625 4545.722656 815.863281 4567.964844 815.863281 C 4590.207031 815.863281 4608.425781 797.640625 4608.425781 775.402344 C 4608.425781 753.160156 4590.339844 734.9375 4567.964844 734.9375 Z M 4567.964844 734.9375"/><path fill="#028CDD" d="M 2547.25 1138.496094 C 2522.460938 1138.496094 2502.230469 1118.265625 2502.230469 1093.410156 C 2502.230469 1068.625 2522.460938 1048.394531 2547.25 1048.394531 C 2572.101562 1048.394531 2592.265625 1068.625 2592.265625 1093.410156 C 2592.332031 1118.265625 2572.101562 1138.496094 2547.25 1138.496094 Z M 2547.25 1073.179688 C 2536.128906 1073.179688 2527.019531 1082.289062 2527.019531 1093.410156 C 2527.019531 1104.53125 2536.128906 1113.640625 2547.25 1113.640625 C 2558.371094 1113.640625 2567.480469 1104.53125 2567.480469 1093.410156 C 2567.480469 1082.289062 2558.4375 1073.179688 2547.25 1073.179688 Z M 2547.25 1073.179688"/><path fill="#028CDD" d="M 4245.875 1289.351562 C 4221.085938 1289.351562 4200.855469 1269.121094 4200.855469 1244.269531 C 4200.855469 1219.480469 4221.085938 1199.25 4245.875 1199.25 C 4270.726562 1199.25 4290.890625 1219.480469 4290.890625 1244.269531 C 4290.957031 1269.121094 4270.726562 1289.351562 4245.875 1289.351562 Z M 4245.875 1224.035156 C 4234.753906 1224.035156 4225.644531 1233.148438 4225.644531 1244.269531 C 4225.644531 1255.386719 4234.753906 1264.5 4245.875 1264.5 C 4256.996094 1264.5 4266.105469 1255.386719 4266.105469 1244.269531 C 4266.105469 1233.148438 4257.0625 1224.035156 4245.875 1224.035156 Z M 4245.875 1224.035156"/><g clip-path="url(#h)"><path fill="#028CDD" d="M 2592.441406 2631.398438 C 2510.054688 2631.398438 2442.804688 2564.152344 2442.804688 2481.539062 C 2442.804688 2399.148438 2510.054688 2331.898438 2592.441406 2331.898438 C 2675.054688 2331.898438 2742.082031 2399.148438 2742.082031 2481.539062 C 2742.304688 2564.152344 2675.054688 2631.398438 2592.441406 2631.398438 Z M 2592.441406 2414.289062 C 2555.480469 2414.289062 2525.195312 2444.574219 2525.195312 2481.539062 C 2525.195312 2518.503906 2555.480469 2548.789062 2592.441406 2548.789062 C 2629.40625 2548.789062 2659.691406 2518.503906 2659.691406 2481.539062 C 2659.691406 2444.574219 2629.628906 2414.289062 2592.441406 2414.289062 Z M 2592.441406 2414.289062"/></g><g mask="url(#i)"><g><g clip-path="url(#j)" transform="translate(4600 2240)"><g clip-path="url(#k)"><path fill="#38B6FF" d="M 240.394531 1.78125 C 108.3125 1.78125 1.238281 108.855469 1.238281 240.941406 C 1.238281 373.023438 108.3125 480.097656 240.394531 480.097656 C 372.480469 480.097656 479.554688 373.023438 479.554688 240.941406 C 479.554688 108.855469 372.480469 1.78125 240.394531 1.78125"/></g></g></g></g></svg>